<svg xmlns="http://www.w3.org/2000/svg" viewBox="0 0 350 350" style="enable-background:new 0 0 350 350" xml:space="preserve">
  <path style="fill:#7ac74f" d="M15 280h40v70H15z"/>
  <path style="fill:#9aff64" d="M15 210h40v70H15z"/>
  <path style="fill:#ffd6a0" d="M331.772 249.118c-6.41-10.645-20.237-14.078-30.883-7.668l-72.64 37.113A22.426 22.426 0 0 0 235 262.499c0-12.427-10.074-22.5-22.5-22.5h-68.211c-28.289 0-41.622-20-89.29-20v100S68 329 85 340c15.169 9.815 22.29 10 33.837 10l74.497-.027c9.332 0 18.666-3.973 29-8.973 10.333-5 101.77-61 101.77-61 10.646-6.411 14.078-20.236 7.668-30.882z"/>
  <path style="fill:#ffc170" d="M54.999 220v100S68 329 85 340c15.169 9.815 22.29 10 33.837 10l46.163-.017L54.999 220z"/>
  <path style="fill:#7ac74f" d="M15 280h40v70H15z"/>
  <path style="fill:#9aff64" d="M15 210h40v70H15zm180-20c0 16.569-13.432 30-30 30-16.569 0-30-13.431-30-30v-15c0-16.569 13.431-30 30-30 16.568 0 30 13.431 30 30v15z"/>
  <circle style="fill:#ffda44" cx="165" cy="80" r="80"/>
  <path style="fill:#ffda44" d="M125 135h80v40h-80z"/>
  <path style="fill:#7ac74f" d="M125 170h40v25h-40z"/>
  <path style="fill:#9aff64" d="M165 170h40v25h-40z"/>
  <path style="fill:#fff0b4" d="M165 140c33.137 0 60-26.863 60-60s-26.863-60-60-60"/>
</svg>
