<svg xmlns="http://www.w3.org/2000/svg" viewBox="0 0 263.976 263.976" style="enable-background:new 0 0 263.976 263.976" xml:space="preserve">
  <path d="M149.763 36.21c3.01-3.811 4.871-8.616 4.871-13.837C154.634 10.036 144.628 0 132.291 0s-22.358 10.036-22.358 22.373c0 5.222 1.597 10.026 4.605 13.837-9.211 5.839-15.55 16.117-15.55 27.807v27.22c0 4.143 3.785 7.739 7.928 7.739h50.811c4.143 0 7.262-3.597 7.262-7.739v-27.22c-.001-11.69-6.013-21.969-15.226-27.807zm-67.775 88.329v-27.22c0-11.689-5.754-21.969-14.967-27.807 3.01-3.811 5-8.616 5-13.837 0-12.337-9.942-22.373-22.279-22.373S27.416 43.339 27.416 55.676c0 5.222 1.855 10.026 4.863 13.837-9.212 5.839-15.292 16.117-15.292 27.807v27.22a7.398 7.398 0 0 0 7.443 7.437h50.811c4.143-.001 6.747-3.295 6.747-7.438zm150.046-55.026c3.008-3.811 5.006-8.616 5.006-13.837 0-12.337-9.939-22.373-22.276-22.373s-22.325 10.036-22.325 22.373c0 5.222 1.843 10.026 4.852 13.837-9.212 5.839-15.304 16.117-15.304 27.807v27.22c0 4.143 3.326 7.437 7.469 7.437h50.811c4.143 0 6.721-3.294 6.721-7.437V97.32c0-11.69-5.743-21.969-14.954-27.807z" fill="white"/>
  <path d="M149.763 201.464c3.01-3.811 4.871-8.615 4.871-13.836 0-12.337-10.006-22.373-22.343-22.373s-22.358 10.036-22.358 22.373c0 5.221 1.597 10.026 4.605 13.837-9.211 5.839-15.55 16.117-15.55 27.807v27.22c0 4.143 3.785 7.484 7.928 7.484h50.811c4.143 0 7.262-3.342 7.262-7.484v-27.22c-.001-11.691-6.013-21.968-15.226-27.808zm-17.442-21.209c4.065 0 7.373 3.308 7.373 7.373 0 4.066-3.308 7.373-7.373 7.373s-7.373-3.308-7.373-7.373 3.307-7.373 7.373-7.373zm17.667 68.721h-36v-19.704c0-9.874 8.127-17.906 18.001-17.906 9.872 0 17.999 8.032 17.999 17.906v19.704z" fill="#d8262c"/>
  <path d="M138.988 138.555v-24.854c0-4.143-3.357-7.5-7.5-7.5a7.499 7.499 0 0 0-7.5 7.5v24.854a7.5 7.5 0 0 0 15 0zm-79.657 1.622a7.503 7.503 0 0 0-10.604.289 7.502 7.502 0 0 0 .289 10.604l37.709 35.707a7.477 7.477 0 0 0 5.156 2.054 7.502 7.502 0 0 0 5.158-12.947l-37.708-35.707zm145.91-.106-37.606 35.789a7.5 7.5 0 1 0 10.34 10.866l37.606-35.789a7.498 7.498 0 0 0 .263-10.602 7.499 7.499 0 0 0-10.603-.264z" fill="white"/>
</svg>