<svg xmlns="http://www.w3.org/2000/svg" viewBox="0 0 247.159 247.159" style="enable-background:new 0 0 247.159 247.159" xml:space="preserve">
  <path d="M41.081 179.007c-18.237 0-33.501 14.838-33.501 33.076v30.074c0 2.762 2.629 5 5.391 5l56.344.002c1.326 0 2.731-.526 3.668-1.465.938-.938 1.597-2.209 1.597-3.535v-30.076c0-18.238-15.263-33.076-33.499-33.076zm.357-2.319c12.229-.001 22.177-9.95 22.177-22.179 0-12.228-9.949-22.176-22.178-22.176s-22.178 9.948-22.178 22.176c0 12.229 9.949 22.179 22.179 22.179zm82.143 2.319c-18.237 0-33.001 14.838-33.001 33.076v30.074c0 2.762 2.443 5 5.205 5l56.251.002c1.326 0 2.369-.526 3.307-1.465.939-.938 1.237-2.209 1.237-3.535v-30.076c0-18.238-14.763-33.076-32.999-33.076zm.484-2.319c12.229-.001 22.177-9.95 22.177-22.179 0-12.228-9.949-22.176-22.178-22.176-12.228 0-22.178 9.948-22.178 22.176 0 12.229 9.949 22.179 22.179 22.179-.001 0-.001 0 0 0zm82.016 2.319c-18.237 0-33.501 14.838-33.501 33.076v30.074c0 2.762 2.603 5 5.365 5l56.331.002c1.326 0 2.75-.526 3.688-1.465.939-.938 1.616-2.209 1.616-3.535v-30.076c0-18.238-15.263-33.076-33.499-33.076zm.305-2.319c12.229-.001 22.177-9.95 22.177-22.179 0-12.228-9.949-22.176-22.178-22.176-12.229 0-22.178 9.948-22.178 22.176.001 12.229 9.95 22.179 22.179 22.179-.001 0-.001 0 0 0zM41.081 47.226c-18.237 0-33.501 14.838-33.501 33.076v30.074c0 2.762 2.629 5 5.391 5l56.344.002c1.326 0 2.731-.526 3.668-1.465.938-.938 1.597-2.209 1.597-3.535V80.302c0-18.239-15.263-33.076-33.499-33.076zm.356-2.872c12.229-.001 22.178-9.95 22.178-22.179C63.615 9.948 53.665 0 41.437 0S19.259 9.948 19.259 22.176c0 12.229 9.949 22.178 22.178 22.178zm82.144 2.872c-18.237 0-33.001 14.838-33.001 33.076v30.074c0 2.762 2.443 5 5.205 5l56.251.002c1.326 0 2.369-.526 3.307-1.465.939-.938 1.237-2.209 1.237-3.535V80.302c0-18.239-14.763-33.076-32.999-33.076zm.483-2.872c12.229-.001 22.178-9.95 22.178-22.179C146.242 9.948 136.292 0 124.064 0c-12.228 0-22.178 9.948-22.178 22.176 0 12.229 9.949 22.178 22.178 22.178z" fill="#fff"/>
  <path d="M206.081 47.226c-18.237 0-33.501 14.838-33.501 33.076v30.074c0 2.762 2.603 5 5.365 5l56.331.002c1.326 0 2.75-.526 3.688-1.465.939-.938 1.616-2.209 1.616-3.535V80.302c0-18.239-15.263-33.076-33.499-33.076zm23.499 58.152-47-.002V80.302c0-12.725 10.777-23.076 23.501-23.076 12.723 0 23.499 10.352 23.499 23.076v25.076zm-23.195-61.024c12.229-.001 22.178-9.95 22.178-22.179C228.563 9.948 218.614 0 206.385 0c-12.229 0-22.178 9.948-22.178 22.176.001 12.229 9.95 22.178 22.178 22.178zm0-34.354c6.715 0 12.178 5.462 12.178 12.176 0 6.715-5.463 12.178-12.178 12.179-6.715 0-12.178-5.463-12.178-12.179C194.208 15.462 199.67 10 206.385 10z" fill="#d8262c"/>
</svg>
