<svg xmlns="http://www.w3.org/2000/svg" viewBox="0 0 301.421 301.421" style="enable-background:new 0 0 301.421 301.421" xml:space="preserve">
  <path style="fill:#9aff64" d="M38.076 38.076 66.36 66.36c35.147-35.147 92.132-35.147 127.279 0 35.147 35.147 35.147 92.132 0 127.279l98.995 98.995c11.716-11.716 11.715-30.711 0-42.427l-51.962-51.962c30.964-50.117 24.718-116.703-18.749-160.17-50.767-50.767-133.079-50.768-183.847.001z"/>
  <path style="fill:#7ac74f" d="M66.36 193.639c-35.148-35.147-35.148-92.132 0-127.279L38.076 38.076c-50.768 50.768-50.768 133.08 0 183.848 43.467 43.467 110.053 49.712 160.17 18.749l51.962 51.962c11.716 11.715 30.711 11.716 42.427 0L193.64 193.64c-35.148 35.147-92.133 35.147-127.28-.001z"/>
  <path style="fill:#ffda44" d="M85 100h30v80H85z"/>
  <path style="fill:#ff5023" d="M145 100h30v80h-30z"/>
  <path style="fill:#ff9811" d="M115 70h30v110h-30z"/>
</svg>
