<svg xmlns="http://www.w3.org/2000/svg" viewBox="0 0 297 297" style="enable-background:new 0 0 297 297" xml:space="preserve">
  <path d="M231 27.123C231 12.143 218.857 0 203.879 0H93.121C78.143 0 66 12.143 66 27.123v242.754C66 284.857 78.143 297 93.121 297h110.758C218.857 297 231 284.857 231 269.877V27.123zM149.333 9.879c4.898 0 8.882 3.984 8.882 8.882 0 4.897-3.984 8.882-8.882 8.882-4.897 0-8.882-3.984-8.882-8.882s3.985-8.882 8.882-8.882zM161.86 289h-25.055c-4.143 0-7.5-3.357-7.5-7.5s3.357-7.5 7.5-7.5h25.055c4.143 0 7.5 3.357 7.5 7.5s-3.357 7.5-7.5 7.5zM215 254.986c0 5.303-3.986 10.014-9.313 10.014H92.979C87.652 265 83 260.289 83 254.986V43.341C83 38.038 87.652 34 92.979 34h112.709c5.326 0 9.313 4.038 9.313 9.341v211.645z" fill="#fff" />
  <path d="M167.525 121.642c0 4.971 4.113 9 9.083 9 4.971 0 8.875-4.029 8.875-9C185.483 104.7 174 90.428 158 86.413V82.93c0-4.971-4.029-9-9-9s-9 4.029-9 9v3.482c-15 4.016-27.358 18.287-27.358 35.229S125 152.855 140 156.871v35.471c-5-3.153-9.192-9.131-9.192-15.983 0-4.971-3.946-9-8.917-9s-9.125 4.029-9.125 9c0 16.942 12.234 31.214 27.234 35.23v3.482c0 4.971 4.029 9 9 9s9-4.029 9-9v-3.482c16-4.016 27.358-18.287 27.358-35.23S174 145.145 158 141.129v-35.471c6 3.154 9.525 9.131 9.525 15.984zm-36.883 0c0-6.853 4.358-12.83 9.358-15.983v31.967c-5-3.154-9.358-9.132-9.358-15.984zm36.716 54.716c0 6.853-3.358 12.83-9.358 15.983v-31.967c6 3.154 9.358 9.132 9.358 15.984z" fill="#7ac74f"/>
</svg>