<svg xmlns="http://www.w3.org/2000/svg" viewBox="0 0 295 295" style="enable-background:new 0 0 295 295" xml:space="preserve">
  <path d="m267.88 249.876-23.491-29.783V163h8.833c4.143 0 7.167-3.357 7.167-7.5v-33c0-4.143-3.024-7.5-7.167-7.5h-8.833V73.5c0-4.143-3.024-7.5-7.167-7.5H153.39V48h34.833c4.143 0 7.167-3.357 7.167-7.5v-33c0-4.143-3.024-7.5-7.167-7.5h-84c-4.143 0-7.833 3.357-7.833 7.5v33c0 4.143 3.69 7.5 7.833 7.5h34.167v18H55.223c-4.143 0-7.833 3.357-7.833 7.5v64.227c-12 3.528-21.92 15.129-21.92 28.866s9.92 25.338 21.92 28.866V247h-9.167c-4.143 0-7.833 3.357-7.833 7.5v33c0 4.143 3.69 7.5 7.833 7.5h34c4.143 0 7.167-3.357 7.167-7.5v-33c0-4.143-3.024-7.5-7.167-7.5H62.39v-51.254c14-3.142 23.029-15.016 23.029-29.153 0-14.138-9.029-26.012-23.029-29.153V81h76.333s-.044 50.672 0 51h-14.5c-4.143 0-7.833 3.357-7.833 7.5v28c0 4.143 3.69 7.5 7.833 7.5h43c4.143 0 7.167-3.357 7.167-7.5v-28c0-4.143-3.024-7.5-7.167-7.5h-13.574c.044-.328.074-51 .074-51h75.667v34h-9.167c-4.143 0-7.833 3.357-7.833 7.5v33c0 4.143 3.69 7.5 7.833 7.5h9.167v58.484l-22.068 28.392c-1.77 2.259-2.011 5.328-.756 7.908 1.257 2.579 3.957 4.216 6.826 4.216h48.75c2.869 0 5.403-1.637 6.66-4.216 1.256-2.58.848-5.649-.922-7.908zM70.752 166.593c0 8.257-6.718 14.975-14.975 14.975s-14.975-6.718-14.975-14.975 6.718-14.975 14.975-14.975 14.975 6.718 14.975 14.975z" fill="#d8262c"/>
</svg>
