<svg xmlns="http://www.w3.org/2000/svg" viewBox="0 0 264 264" style="enable-background:new 0 0 264 264" xml:space="preserve">
  <path d="M246.997 33H17.926C8.225 33 0 40.892 0 50.593v163.071C0 223.385 8.06 231 17.926 231h229.071c9.721 0 17.003-7.615 17.003-17.336V50.593C264 40.728 256.718 33 246.997 33zM60.226 43.025c3.554 0 6.444 2.891 6.444 6.444s-2.891 6.444-6.444 6.444-6.444-2.891-6.444-6.444 2.89-6.444 6.444-6.444zm-18.5 0c3.554 0 6.444 2.891 6.444 6.444s-2.891 6.444-6.444 6.444-6.444-2.891-6.444-6.444 2.89-6.444 6.444-6.444zm-18.5 0c3.554 0 6.444 2.891 6.444 6.444s-2.891 6.444-6.444 6.444-6.444-2.891-6.444-6.444 2.89-6.444 6.444-6.444zM248 214.5c0 .276.109.5-.167.5H16V66.5c0-.276.557-.5.833-.5h231c.276 0 .167.224.167.5v148zM241.889 56h-70c-3.554 0-6.444-2.91-6.444-6.487s2.891-6.487 6.444-6.487l70 .022c3.554 0 6.444 2.9 6.444 6.466 0 3.576-2.891 6.486-6.444 6.486z" fill="#d8262c"/>
  <path d="M188.842 113.227a7.5 7.5 0 0 0-3.669-7.455l-48.919-28.596c-1.145-.665-2.445-1.176-3.77-1.176h-.121c-1.321 0-2.619.509-3.762 1.172l-49.342 28.6c-2.344 1.362-3.378 3.822-3.557 6.333-.042.075 0 56.627 0 56.627a7.5 7.5 0 0 0 3.738 6.505l49.037 28.432a7.488 7.488 0 0 0 3.762 1.012c.031 0 .062-.006.093-.006s.061.006.093.006c1.3 0 2.599-.338 3.762-1.012l49.037-28.434a7.5 7.5 0 0 0 3.738-6.505l-.12-55.503zm-64.074 70.951-34.056-19.745.085-39.177 34.015 19.724-.044 39.198zm7.563-52.177-34.054-19.747 10.73-6.222 34.012 19.77-10.688 6.199zm7.566 52.177-.045-39.198 11.245-6.521.088 39.174-11.288 6.545zm-15.946-86.811 8.468-4.91 34.012 19.771-8.469 4.91-34.011-19.771zm42.215 71.579-.088-39.175 7.79-4.518.085 39.177-7.787 4.516z" fill="#fff"/>
</svg>