<svg width="975" height="180" viewBox="0 0 975 180" fill="none" xmlns="http://www.w3.org/2000/svg">
<path d="M7.92 149C7.44 149 7.2 148.7 7.2 148.1L7.56 24.44C7.56 23.96 7.8 23.72 8.28 23.72H42.84C49.68 23.72 55.8 25.4 61.2 28.76C66.6 32 70.86 36.32 73.98 41.72C77.1 47.12 78.66 53 78.66 59.36C78.66 64.52 77.46 69.32 75.06 73.76C72.78 78.2 70.02 81.8 66.78 84.56C70.26 88.04 72.96 92.06 74.88 96.62C76.8 101.18 77.76 105.98 77.76 111.02C77.76 117.98 76.08 124.34 72.72 130.1C69.36 135.86 64.8 140.48 59.04 143.96C53.4 147.32 47.1 149 40.14 149H7.92ZM29.16 73.4H42.84C47.04 73.4 50.4 71.96 52.92 69.08C55.56 66.08 56.88 62.84 56.88 59.36C56.88 55.52 55.5 52.22 52.74 49.46C49.98 46.58 46.68 45.14 42.84 45.14H29.16V73.4ZM28.98 127.04H40.14C44.46 127.04 48.18 125.48 51.3 122.36C54.42 119.12 55.98 115.34 55.98 111.02C55.98 106.7 54.42 102.98 51.3 99.86C48.18 96.74 44.46 95.18 40.14 95.18H29.16L28.98 127.04ZM91.4161 149C90.9361 149 90.6961 148.7 90.6961 148.1L91.0561 24.44C91.0561 23.96 91.2961 23.72 91.7761 23.72H128.136C134.616 23.72 140.556 25.34 145.956 28.58C151.476 31.7 155.856 35.96 159.096 41.36C162.336 46.64 163.956 52.64 163.956 59.36C163.956 63.8 163.296 67.82 161.976 71.42C160.656 74.9 159.096 77.9 157.296 80.42C155.496 82.82 153.876 84.62 152.436 85.82C158.916 93.02 162.156 101.48 162.156 111.2L162.336 148.1C162.336 148.7 162.036 149 161.436 149H141.096C140.616 149 140.376 148.82 140.376 148.46V111.2C140.376 106.88 138.816 103.16 135.696 100.04C132.696 96.8 128.976 95.18 124.536 95.18H112.656L112.476 148.1C112.476 148.7 112.236 149 111.756 149H91.4161ZM112.656 73.58H128.136C131.856 73.58 135.156 72.2 138.036 69.44C140.916 66.68 142.356 63.32 142.356 59.36C142.356 55.52 140.916 52.22 138.036 49.46C135.276 46.7 131.976 45.32 128.136 45.32H112.656V73.58ZM178.432 149C177.832 149 177.532 148.7 177.532 148.1L177.712 24.44C177.712 23.96 177.952 23.72 178.432 23.72H198.592C199.072 23.72 199.312 23.96 199.312 24.44L199.492 148.1C199.492 148.7 199.252 149 198.772 149H178.432ZM216.045 149C215.565 149 215.325 148.7 215.325 148.1L215.505 24.62C215.505 24.02 215.805 23.72 216.405 23.72H236.385C236.985 23.72 237.285 24.02 237.285 24.62L237.105 126.86H274.185C274.785 126.86 275.085 127.16 275.085 127.76V148.1C275.085 148.7 274.785 149 274.185 149H216.045ZM287.588 149C287.108 149 286.868 148.7 286.868 148.1L287.048 24.62C287.048 24.02 287.348 23.72 287.948 23.72H307.928C308.528 23.72 308.828 24.02 308.828 24.62L308.648 126.86H345.728C346.328 126.86 346.628 127.16 346.628 127.76V148.1C346.628 148.7 346.328 149 345.728 149H287.588ZM359.311 149C358.711 149 358.411 148.7 358.411 148.1L358.591 24.44C358.591 23.96 358.831 23.72 359.311 23.72H379.471C379.951 23.72 380.191 23.96 380.191 24.44L380.371 148.1C380.371 148.7 380.131 149 379.651 149H359.311ZM477.98 149C477.02 149 476.54 148.58 476.54 147.74L476.36 25.16C476.36 24.2 476.84 23.72 477.8 23.72H494L524.42 94.64L523.52 25.16C523.52 24.2 524.06 23.72 525.14 23.72H542.96C543.68 23.72 544.04 24.2 544.04 25.16L544.22 147.92C544.22 148.64 543.92 149 543.32 149H527.48L496.34 82.76L497.6 147.56C497.6 148.52 497.06 149 495.98 149H477.98ZM577.856 149C577.376 149 577.136 148.7 577.136 148.1V45.5H553.736C553.136 45.5 552.836 45.2 552.836 44.6L553.016 24.44C553.016 23.96 553.256 23.72 553.736 23.72H622.136C622.736 23.72 623.036 23.96 623.036 24.44V44.6C623.036 45.2 622.796 45.5 622.316 45.5H598.736L598.916 148.1C598.916 148.7 598.676 149 598.196 149H577.856ZM659.365 149C658.885 149 658.645 148.7 658.645 148.1L658.825 24.44C658.825 23.96 659.125 23.72 659.725 23.72H679.705C680.305 23.72 680.605 23.96 680.605 24.44L680.425 73.4H707.425V24.44C707.425 23.96 707.665 23.72 708.145 23.72H728.125C728.725 23.72 729.025 23.96 729.025 24.44L729.385 148.1C729.385 148.7 729.085 149 728.485 149H708.325C707.725 149 707.425 148.7 707.425 148.1V95.18H680.425V148.1C680.425 148.7 680.185 149 679.705 149H659.365ZM857.351 150.8C850.991 150.8 845.111 149.18 839.711 145.94C834.311 142.58 829.991 138.14 826.751 132.62C823.631 127.1 822.071 121.04 822.071 114.44L822.431 24.44C822.431 23.96 822.671 23.72 823.151 23.72H843.311C843.791 23.72 844.031 23.96 844.031 24.44V114.44C844.031 118.52 845.291 122 847.811 124.88C850.451 127.64 853.631 129.02 857.351 129.02C861.191 129.02 864.371 127.64 866.891 124.88C869.531 122 870.851 118.52 870.851 114.44V24.44C870.851 23.96 871.091 23.72 871.571 23.72H891.731C892.211 23.72 892.451 23.96 892.451 24.44L892.811 114.44C892.811 121.16 891.191 127.28 887.951 132.8C884.831 138.32 880.571 142.7 875.171 145.94C869.891 149.18 863.951 150.8 857.351 150.8ZM902.164 149C901.564 149 901.264 148.7 901.264 148.1L901.444 128.48L945.544 44.24H903.784C903.304 44.24 903.064 44 903.064 43.52V24.62C903.064 24.02 903.304 23.72 903.784 23.72H968.944C969.544 23.72 969.844 24.02 969.844 24.62V44.06L925.924 127.94H969.304C969.784 127.94 970.024 128.24 970.024 128.84L970.204 148.1C970.204 148.7 969.904 149 969.304 149H902.164Z" fill="#7ac74f"/>
<mask id="path-2-inside-1_203_2" fill="white">
<path fill-rule="evenodd" clip-rule="evenodd" d="M391 53C391 36.4315 404.431 23 421 23H431.78C435.407 23 438.809 23.9655 441.742 25.6536C440.827 26.8243 440.281 28.2982 440.281 29.8994V115H441L423.033 127.5L391 148.902V53Z"/>
</mask>
<path fill-rule="evenodd" clip-rule="evenodd" d="M391 53C391 36.4315 404.431 23 421 23H431.78C435.407 23 438.809 23.9655 441.742 25.6536C440.827 26.8243 440.281 28.2982 440.281 29.8994V115H441L423.033 127.5L391 148.902V53Z" fill="#7ac74f"/>
<path d="M441.742 25.6536L442.53 26.2695L443.24 25.3617L442.241 24.7869L441.742 25.6536ZM440.281 115H439.281V116H440.281V115ZM441 115L441.571 115.821L444.188 114H441V115ZM423.033 127.5L423.588 128.331L423.596 128.326L423.604 128.321L423.033 127.5ZM391 148.902H390V150.773L391.556 149.734L391 148.902ZM421 22C403.879 22 390 35.8792 390 53H392C392 36.9837 404.984 24 421 24V22ZM431.78 22H421V24H431.78V22ZM442.241 24.7869C439.16 23.0138 435.587 22 431.78 22V24C435.228 24 438.458 24.9172 441.243 26.5203L442.241 24.7869ZM441.281 29.8994C441.281 28.5292 441.747 27.2706 442.53 26.2695L440.954 25.0377C439.906 26.378 439.281 28.0671 439.281 29.8994H441.281ZM441.281 115V29.8994H439.281V115H441.281ZM441 114H440.281V116H441V114ZM423.604 128.321L441.571 115.821L440.429 114.179L422.462 126.679L423.604 128.321ZM391.556 149.734L423.588 128.331L422.477 126.669L390.444 148.071L391.556 149.734ZM390 53V148.902H392V53H390Z" fill="#7ac74f" mask="url(#path-2-inside-1_203_2)"/>
<path d="M421 24.5H434C449.74 24.5 462.5 37.2599 462.5 53V147.5H392.5V53C392.5 37.2599 405.26 24.5 421 24.5Z" stroke="#7ac74f" stroke-width="3"/>
<mask id="path-5-inside-2_203_2" fill="white">
<path fill-rule="evenodd" clip-rule="evenodd" d="M741 53C741 36.4315 754.431 23 771 23H781.78C785.407 23 788.809 23.9655 791.742 25.6536C790.827 26.8243 790.281 28.2982 790.281 29.8994V115H791L773.033 127.5L741 148.902V53Z"/>
</mask>
<path fill-rule="evenodd" clip-rule="evenodd" d="M741 53C741 36.4315 754.431 23 771 23H781.78C785.407 23 788.809 23.9655 791.742 25.6536C790.827 26.8243 790.281 28.2982 790.281 29.8994V115H791L773.033 127.5L741 148.902V53Z" fill="#7ac74f"/>
<path d="M791.742 25.6536L792.53 26.2695L793.24 25.3617L792.241 24.7869L791.742 25.6536ZM790.281 115H789.281V116H790.281V115ZM791 115L791.571 115.821L794.188 114H791V115ZM773.033 127.5L773.588 128.331L773.596 128.326L773.604 128.321L773.033 127.5ZM741 148.902H740V150.773L741.556 149.734L741 148.902ZM771 22C753.879 22 740 35.8792 740 53H742C742 36.9837 754.984 24 771 24V22ZM781.78 22H771V24H781.78V22ZM792.241 24.7869C789.16 23.0138 785.587 22 781.78 22V24C785.228 24 788.458 24.9172 791.243 26.5203L792.241 24.7869ZM791.281 29.8994C791.281 28.5292 791.747 27.2706 792.53 26.2695L790.954 25.0377C789.906 26.378 789.281 28.0671 789.281 29.8994H791.281ZM791.281 115V29.8994H789.281V115H791.281ZM791 114H790.281V116H791V114ZM773.604 128.321L791.571 115.821L790.429 114.179L772.462 126.679L773.604 128.321ZM741.556 149.734L773.588 128.331L772.477 126.669L740.444 148.071L741.556 149.734ZM740 53V148.902H742V53H740Z" fill="#7ac74f" mask="url(#path-5-inside-2_203_2)"/>
<path d="M771 24.5H784C799.74 24.5 812.5 37.2599 812.5 53V147.5H742.5V53C742.5 37.2599 755.26 24.5 771 24.5Z" stroke="#7ac74f" stroke-width="3"/>
</svg>
